<svg id="Layer_1" data-name="Layer 1" xmlns="http://www.w3.org/2000/svg" xmlns:xlink="http://www.w3.org/1999/xlink" viewBox="0 0 240 263"><defs><style>.cls-1,.cls-2{fill:#fff;}.cls-11,.cls-13,.cls-14,.cls-18,.cls-2,.cls-20,.cls-21,.cls-6,.cls-8,.cls-9{fill-rule:evenodd;}.cls-3{fill:#e6e6e6;}.cls-4{mask:url(#mask);}.cls-5{mask:url(#mask-2);}.cls-6{fill:#ffc794;}.cls-7{mask:url(#mask-3);}.cls-8{fill-opacity:0.1;}.cls-9{fill:#2c3342;}.cls-10{mask:url(#mask-4);}.cls-11{fill:#f4f4f4;}.cls-12{mask:url(#mask-5);}.cls-13{fill-opacity:0.16;}.cls-14{fill-opacity:0.7;}.cls-15{mask:url(#mask-6);}.cls-16{mask:url(#mask-7);}.cls-17{fill:#ff4f6d;}.cls-18{fill-opacity:0.6;}.cls-19{mask:url(#mask-8);}.cls-20{fill:#5b301d;}.cls-21{fill:#261006;}</style><mask id="mask" x="0" y="23" width="240" height="240" maskUnits="userSpaceOnUse"><g id="react-mask-4"><circle id="react-path-1" class="cls-1" cx="120" cy="143" r="120"/></g></mask><mask id="mask-2" x="-12" y="-17" width="264" height="280" maskUnits="userSpaceOnUse"><g id="react-mask-5"><path id="react-path-2" class="cls-2" d="M0,143a120,120,0,0,0,240,0h12V-17H-12V143Z"/></g></mask><mask id="mask-3" x="20" y="19" width="200" height="244" maskUnits="userSpaceOnUse"><g id="react-mask-6"><path id="react-path-3" class="cls-2" d="M144,163.61V182h4a72,72,0,0,1,72,72v9H20v-9a72,72,0,0,1,72-72h4V163.61a56,56,0,0,1-31.69-44.73A12,12,0,0,1,54,107V93A12,12,0,0,1,64,81.17V75h0a56,56,0,0,1,56-56h0a56,56,0,0,1,56,56v6.17A12,12,0,0,1,186,93v14a12,12,0,0,1-10.31,11.88A56,56,0,0,1,144,163.61Z"/></g></mask><mask id="mask-4" x="20" y="166.07" width="200" height="96.93" maskUnits="userSpaceOnUse"><g id="react-mask-8"><path id="react-path-7" class="cls-2" d="M96,166.07c-17.92,2-31.72,7.48-32,21.57A72,72,0,0,0,20,254h0v9H220v-9a72,72,0,0,0-44-66.36c-.28-14.09-14.08-19.56-32-21.57V185h0a24,24,0,0,1-24,24h0a24,24,0,0,1-24-24Z"/></g></mask><mask id="mask-5" x="20" y="165.72" width="200" height="97.28" maskUnits="userSpaceOnUse"><g id="react-mask-8-2" data-name="react-mask-8"><path id="react-path-7-2" data-name="react-path-7" class="cls-2" d="M96,166.07c-17.92,2-31.72,7.48-32,21.57A72,72,0,0,0,20,254h0v9H220v-9a72,72,0,0,0-44-66.36c-.28-14.09-14.08-19.56-32-21.57V185h0a24,24,0,0,1-24,24h0a24,24,0,0,1-24-24Z"/></g></mask><mask id="mask-6" x="101.11" y="119" width="37.79" height="30" maskUnits="userSpaceOnUse"><g id="react-mask-10"><path id="react-path-9" class="cls-2" d="M101.12,132.13a19,19,0,0,0,37.77-.09,2.09,2.09,0,0,0-1.85-2H103.09A2.13,2.13,0,0,0,101.12,132.13Z"/></g></mask><mask id="mask-7" x="101.11" y="130" width="37.79" height="33" maskUnits="userSpaceOnUse"><g id="react-mask-10-2" data-name="react-mask-10"><path id="react-path-9-2" data-name="react-path-9" class="cls-2" d="M101.12,132.13a19,19,0,0,0,37.77-.09,2.09,2.09,0,0,0-1.85-2H103.09A2.13,2.13,0,0,0,101.12,132.13Z"/></g></mask><mask id="mask-8" x="-12" y="-17" width="264" height="280" maskUnits="userSpaceOnUse"><g id="react-mask-13"><rect id="react-path-15" class="cls-1" x="-12" y="-17" width="264" height="280"/></g></mask></defs><g id="Avataaar"><g id="Avataaar_Circle" data-name="Avataaar/Circle"><g id="Circle"><g id="Circle-Background"><circle id="react-path-1-2" data-name="react-path-1" class="cls-3" cx="120" cy="143" r="120"/></g><g class="cls-4"><g id="Color_Palette_Blue-01" data-name="Color/Palette/Blue-01"><rect id="_Color" data-name="ðŸ–Color" class="cls-1" y="23" width="240" height="240"/></g></g></g><g class="cls-5"><g id="Avataaar-2" data-name="Avataaar"><g id="Body"><path id="react-path-3-2" data-name="react-path-3" class="cls-6" d="M144,163.61V182h4a72,72,0,0,1,72,72v9H20v-9a72,72,0,0,1,72-72h4V163.61a56,56,0,0,1-31.69-44.73A12,12,0,0,1,54,107V93A12,12,0,0,1,64,81.17V75h0a56,56,0,0,1,56-56h0a56,56,0,0,1,56,56v6.17A12,12,0,0,1,186,93v14a12,12,0,0,1-10.31,11.88A56,56,0,0,1,144,163.61Z"/><g class="cls-7"><path id="Neck-Shadow" class="cls-8" d="M176,98v23a56,56,0,0,1-112,0v-8a56,56,0,0,0,112,0Z"/></g></g><g id="Clothing_Hoodie" data-name="Clothing/Hoodie"><g id="Hoodie"><path id="react-path-7-3" data-name="react-path-7" class="cls-9" d="M96,166.07c-17.92,2-31.72,7.48-32,21.57A72,72,0,0,0,20,254h0v9H220v-9a72,72,0,0,0-44-66.36c-.28-14.09-14.08-19.56-32-21.57V185h0a24,24,0,0,1-24,24h0a24,24,0,0,1-24-24Z"/></g><g class="cls-10"><path id="Straps" class="cls-11" d="M90,214.74V263H83V211.15A64.77,64.77,0,0,0,90,214.74Zm67-3.59V251.5a3.5,3.5,0,0,1-7,0V214.74A64.77,64.77,0,0,0,157,211.15Z"/></g><g class="cls-12"><path id="Shadow" class="cls-13" d="M79,165.72c-15,2.85-25.46,8.52-25.46,19.59C53.5,205,86.54,221,120,221s66.5-16,66.5-35.69c0-11.07-10.41-16.74-25.46-19.59,9.08,3.35,15,9,15,18.36,0,20.39-27.82,36.92-56,36.92s-56-16.53-56-36.92C64,174.71,69.88,169.07,79,165.72Z"/></g></g><g id="Face"><g id="Mouth_Smile" data-name="Mouth/Smile"><g id="Mouth"><path id="react-path-9-3" data-name="react-path-9" class="cls-14" d="M101.12,132.13a19,19,0,0,0,37.77-.09,2.09,2.09,0,0,0-1.85-2H103.09A2.13,2.13,0,0,0,101.12,132.13Z"/></g><g class="cls-15"><rect id="Teeth" class="cls-1" x="105" y="119" width="31" height="16" rx="5"/></g><g class="cls-16"><g id="Tongue"><circle class="cls-17" cx="115" cy="152" r="11"/><circle class="cls-17" cx="125" cy="152" r="11"/></g></g></g><g id="Nose_Default" data-name="Nose/Default"><path id="Nose" class="cls-13" d="M108,113c0,4.42,5.37,8,12,8h0c6.63,0,12-3.58,12-8"/></g><g id="Eyes_Happy-_" data-name="Eyes/Happy-ðŸ˜"><path id="Squint" class="cls-18" d="M80.16,95.45a12.34,12.34,0,0,1,21.66,0c.55,1.12-.24,2-1,1.36a15.72,15.72,0,0,0-19.35-.2C80.55,97.3,79.62,96.56,80.16,95.45Z"/><path id="Squint-2" data-name="Squint" class="cls-18" d="M138.16,95.45a12.34,12.34,0,0,1,21.66,0c.55,1.12-.24,2-1,1.36a15.72,15.72,0,0,0-19.35-.2C138.55,97.3,137.62,96.56,138.16,95.45Z"/></g><g id="Eyebrow_Natural_Raised-Excited-Natural" data-name="Eyebrow/Natural/Raised-Excited-Natural"><path id="Eye-Browse-Reddit" class="cls-18" d="M86.77,66.58l.91-.4c5.24-2.09,13.18-1.21,18,1.12.57.27.18,1.15-.4,1.11C90.4,67.26,80.36,76.55,77,82.85c-.11.18-.41.2-.49,0C74.16,77.56,80.91,68.9,86.77,66.58Z"/><path id="Eye-Browse-Reddit-2" data-name="Eye-Browse-Reddit" class="cls-18" d="M153.23,66.58l-.91-.4c-5.24-2.09-13.18-1.21-18,1.12-.57.27-.18,1.15.4,1.11,14.92-1.15,25,8.14,28.37,14.44.11.18.41.2.49,0C165.84,77.56,159.09,68.9,153.23,66.58Z"/></g></g><g id="Top"><g class="cls-19"><g id="Top_Short-Hair_Short-Flat" data-name="Top/Short-Hair/Short-Flat"><g id="Facial-Hair_Beard-Light" data-name="Facial-Hair/Beard-Light"><g id="Lite-Beard"><path id="react-path-17" class="cls-20" d="M137.43,153.17c-2.52,2.29-5.19,3.32-8.58,2.6-.58-.12-2.95-4.54-8.85-4.54s-8.27,4.42-8.85,4.54c-3.39.72-6.07-.31-8.58-2.6-4.72-4.31-8.65-10.26-6.29-16.75,1.23-3.38,3.23-7.1,6.87-8.17,3.89-1.15,9.35,0,13.26-.79A8.71,8.71,0,0,0,120,126a8.72,8.72,0,0,0,3.58,1.46c3.92.78,9.38-.36,13.27.79,3.64,1.07,5.64,4.79,6.87,8.17,2.36,6.49-1.57,12.44-6.29,16.75M176.08,81c-3.41,8.4-2.09,18.86-2.72,27.68-.52,7.16-2,17.91-8.39,22.53-3.25,2.37-9.18,6.35-13.43,5.24-2.93-.76-3.24-9.16-7.08-12.3a22.43,22.43,0,0,0-15.31-4.89c-2.37.1-7.17.08-9.15,1.9-2-1.82-6.78-1.8-9.15-1.9a22.43,22.43,0,0,0-15.31,4.89c-3.84,3.14-4.15,11.54-7.08,12.3-4.25,1.11-10.18-2.87-13.43-5.24-6.37-4.62-7.87-15.37-8.39-22.53C66,99.86,67.33,89.4,63.92,81c-1.66,0-.57,16.13-.57,16.13v20.36c0,15.28,9.59,38.17,30.76,46.9C99.29,166.53,111,170,120,170s20.71-3.14,25.89-5.28c21.17-8.73,30.72-31.95,30.76-47.23V97.13S177.74,81,176.08,81"/></g></g><g id="Short-Hair"><path id="react-path-14" class="cls-21" d="M167.15,22.92a84.69,84.69,0,0,0-9.08-7.61c-.69-.53-1.39-1.05-2.06-1.6a10.65,10.65,0,0,1-1.91-1.66c-.45-1-.18-.22-.12-1.4.08-1.5,3.13-5.73.85-6.7-1-.43-2.79.71-3.75,1.08a58.24,58.24,0,0,1-5.73,1.9c.93-1.85,2.71-5.57-.63-4.58-2.61.78-5,2.77-7.64,3.71.86-1.42,4.32-5.81,1.19-6.06-1-.07-3.8,1.75-4.85,2.14a55,55,0,0,1-9.63,2.51c-11.2,2-24.29,1.45-34.65,6.54-8,3.93-15.88,10-20.49,17.8-4.45,7.48-6.11,15.67-7,24.25a120.88,120.88,0,0,0-.42,19.12c.1,2.07.34,11.61,3.34,8.72C66,79.64,66,73.83,66.4,71.86a92.73,92.73,0,0,1,2.72-11.64c2.21-6.68,4.81-13.79,10.31-18.39,3.52-2.95,6-6.94,9.38-9.92,1.51-1.34.36-1.2,2.79-1,1.64.12,3.29.16,4.93.2,3.79.1,7.59.08,11.39.09,7.65,0,15.26.14,22.9-.26,3.39-.18,6.8-.28,10.18-.59,1.9-.18,5.25-1.39,6.81-.46s2.9,3.61,3.93,4.75a61,61,0,0,0,8.12,6.92c5.9,4.57,8.87,10.33,10.66,17.48s1.29,13.75,3.49,20.76c.39,1.24,1.42,3.36,2.69,1.46a14.27,14.27,0,0,0,.17-3.42c0-4.52,1.14-7.91,1.13-12.46C177.94,51.53,177.5,33.49,167.15,22.92Z"/></g></g></g></g></g></g></g></g></svg>