<svg xmlns="http://www.w3.org/2000/svg" version="1.1" xmlns:xlink="http://www.w3.org/1999/xlink" xmlns:svgjs="http://svgjs.com/svgjs" width="1440" height="560" preserveAspectRatio="none" viewBox="0 0 1440 560"><g mask="url(&quot;#SvgjsMask2035&quot;)" fill="none"><rect width="1440" height="560" x="0" y="0" fill="url(#SvgjsLinearGradient2036)"></rect><path d="M1440 0L1327.54 0L1440 107.87z" fill="rgba(255, 255, 255, .1)"></path><path d="M1327.54 0L1440 107.87L1440 283.49L939.28 0z" fill="rgba(255, 255, 255, .075)"></path><path d="M939.28 0L1440 283.49L1440 314.13L700.3499999999999 0z" fill="rgba(255, 255, 255, .05)"></path><path d="M700.35 0L1440 314.13L1440 432.97L308.08000000000004 0z" fill="rgba(255, 255, 255, .025)"></path><path d="M0 560L655.1 560L0 353.41999999999996z" fill="rgba(0, 0, 0, .1)"></path><path d="M0 353.41999999999996L655.1 560L915.1400000000001 560L0 166.99999999999997z" fill="rgba(0, 0, 0, .075)"></path><path d="M0 167L915.1400000000001 560L1235.88 560L0 65.07z" fill="rgba(0, 0, 0, .05)"></path><path d="M0 65.07L1235.88 560L1365.5800000000002 560L0 58.07999999999999z" fill="rgba(0, 0, 0, .025)"></path></g><defs><mask id="SvgjsMask2035"><rect width="1440" height="560" fill="#ffffff"></rect></mask><linearGradient x1="15.28%" y1="-39.29%" x2="84.72%" y2="139.29%" gradientUnits="userSpaceOnUse" id="SvgjsLinearGradient2036"><stop stop-color="#0e2a47" offset="0"></stop><stop stop-color="rgba(243, 243, 243, 1)" offset="0"></stop></linearGradient></defs></svg>