<svg id="Layer_1" data-name="Layer 1" xmlns="http://www.w3.org/2000/svg" viewBox="0 0 51.42 40.57"><defs><style>.cls-1{fill:#191919;}</style></defs><path class="cls-1" d="M25.81,5.88H40.38c3.52,0,5.33,1.93,5.46,5.43a63.83,63.83,0,0,0,.79,8.17,6.33,6.33,0,0,0,4.23,5.39c.78.27.89,2.12.13,2.41-3.86,1.47-4.45,4.86-4.91,8.28a43.69,43.69,0,0,0-.25,5.49c0,3.35-2,5.39-5.41,5.39q-14.64,0-29.27,0c-3.42,0-5.27-2-5.41-5.38a57.24,57.24,0,0,0-.81-8.18c-.46-2.45-1.61-4.63-4.26-5.57-.32-.12-.56-.8-.58-1.24S.32,25,.6,24.93c2.7-.87,3.85-3,4.34-5.49a51.12,51.12,0,0,0,.82-7.92c.13-3.85,1.77-5.61,5.61-5.62,4.81,0,9.63,0,14.44,0Zm4.82,19.68c2.25-1.44,3.42-3.31,2.91-5.91a5.25,5.25,0,0,0-5.25-4.48C25.12,15,21.92,15,18.73,15c-.31,0-.89.73-.89,1.13-.05,6.73,0,13.46,0,20.19,0,.82.34,1.16,1.19,1.15,3.15,0,6.3,0,9.45-.06a6.44,6.44,0,0,0,5-2.45C36,31.7,34.89,27.76,30.63,25.56Z" transform="translate(-0.09 -5.88)"/><path class="cls-1" d="M21.79,30.81c0-3.34,0-3.37,3.37-3.32a14.46,14.46,0,0,1,3.36.33,2.94,2.94,0,0,1,2.28,3.23,3,3,0,0,1-2.7,3c-1.77.2-3.56.18-5.34.26-.75,0-1-.36-1-1.05S21.79,31.64,21.79,30.81Z" transform="translate(-0.09 -5.88)"/><path class="cls-1" d="M21.8,21.25c0-3,0-3,3-2.95a17.52,17.52,0,0,1,3,.23,2.43,2.43,0,0,1,2,2.42c.1,1.29-.36,2.57-1.6,2.85a34.94,34.94,0,0,1-5.8.53c-.17,0-.5-.54-.53-.86A18.25,18.25,0,0,1,21.8,21.25Z" transform="translate(-0.09 -5.88)"/></svg>