<svg id="Layer_1" data-name="Layer 1" xmlns="http://www.w3.org/2000/svg" viewBox="0 0 45.15 51.49"><defs><style>.cls-1{fill:#333;}</style></defs><path class="cls-1" d="M48.33,0c-.24,2.77-.46,5.49-.7,8.21s-.51,5.66-.76,8.49c-.3,3.34-.61,6.69-.91,10-.24,2.72-.47,5.44-.71,8.16-.29,3.35-.65,6.69-.87,10C44.31,46,44,46.52,42.9,46.82c-5.59,1.48-11.15,3.08-16.73,4.62a1.67,1.67,0,0,1-.83,0L7.77,46.56a.63.63,0,0,1-.54-.63q-.35-4.05-.7-8.1c-.29-3.34-.6-6.68-.9-10-.24-2.74-.47-5.48-.71-8.23L4,9.61c-.24-2.74-.47-5.49-.71-8.23C3.27.94,3.23.49,3.18,0ZM13.24,29.32c.06.6.11,1.11.15,1.61.2,2.3.41,4.6.59,6.9a.82.82,0,0,0,.72.84L25.3,41.6a1.76,1.76,0,0,0,.91,0c3.45-.94,6.89-1.93,10.35-2.83a1.22,1.22,0,0,0,1-1.33c.13-1.88.31-3.75.47-5.63q.49-5.55,1-11.1.4-4.41.79-8.82c.07-.79.12-1.58.19-2.38H11.46c.11,1.55.25,3.05.3,4.54,0,.65.23.81.86.81,6.81-.06,13.62-.08,20.43-.11h.83c-.11,1.73-.25,3.38-.32,5,0,.6-.2.79-.82.8-6.5.05-13,.14-19.49.21H12.4L13,26.21H33c-.26,2.44-.53,4.84-.77,7.24a.78.78,0,0,1-.65.79c-1.71.43-3.4.93-5.12,1.35a3.14,3.14,0,0,1-1.43,0c-1.67-.41-3.32-.91-5-1.32a.81.81,0,0,1-.71-.87c0-.74-.1-1.48-.18-2.21s.06-1.41-.28-1.72-1.14-.13-1.74-.13C15.84,29.31,14.57,29.32,13.24,29.32Z" transform="translate(-3.18)"/></svg>