<svg xmlns="http://www.w3.org/2000/svg" version="1.1" xmlns:xlink="http://www.w3.org/1999/xlink" xmlns:svgjs="http://svgjs.com/svgjs" width="1440" height="560" preserveAspectRatio="none" viewBox="0 0 1440 560"><g mask="url(&quot;#SvgjsMask1036&quot;)" fill="none"><path d="M355 619.75C481.8 598.34 540.39 290.34 747.16 286.87 953.93 283.4 943.24 356.87 1139.32 356.87 1335.4 356.87 1431.89 287.14 1531.48 286.87" stroke="rgba(255, 255, 255, 0.58)" stroke-width="2"></path><path d="M872.51 629.13C979.29 624.59 1036.39 461.89 1258.92 446.26 1481.46 430.63 1529.08 195.16 1645.34 183.06" stroke="rgba(255, 255, 255, 0.58)" stroke-width="2"></path><path d="M804.49 667.41C944.39 636.18 1006.13 267.71 1214.93 267.05 1423.73 266.39 1506.05 504.23 1625.37 513.45" stroke="rgba(255, 255, 255, 0.58)" stroke-width="2"></path><path d="M642.61 601.67C789.95 558.53 839.75 143.68 1049.89 142.06 1260.04 140.44 1337.86 384.15 1457.18 394.06" stroke="rgba(255, 255, 255, 0.58)" stroke-width="2"></path><path d="M444.42 582.47C568.8 565.36 634.65 278.27 842.09 275.78 1049.53 273.29 1040.93 345.78 1239.77 345.78 1438.6 345.78 1536.49 276.05 1637.44 275.78" stroke="rgba(255, 255, 255, 0.58)" stroke-width="2"></path></g><defs><mask id="SvgjsMask1036"><rect width="1440" height="560" fill="#ffffff"></rect></mask></defs></svg>