<svg xmlns="http://www.w3.org/2000/svg" version="1.1" xmlns:xlink="http://www.w3.org/1999/xlink" xmlns:svgjs="http://svgjs.com/svgjs" width="1440" height="560" preserveAspectRatio="none" viewBox="0 0 1440 560"><g mask="url(&quot;#SvgjsMask1028&quot;)" fill="none"><rect width="1440" height="560" x="0" y="0" fill="url(#SvgjsLinearGradient1029)"></rect><path d="M1440 0L842.85 0L1440 187.46z" fill="rgba(255, 255, 255, .1)"></path><path d="M842.85 0L1440 187.46L1440 280.26L509.83000000000004 0z" fill="rgba(255, 255, 255, .075)"></path><path d="M509.83000000000004 0L1440 280.26L1440 319.15L204.28000000000003 0z" fill="rgba(255, 255, 255, .05)"></path><path d="M204.27999999999997 0L1440 319.15L1440 424.84L146.78999999999996 0z" fill="rgba(255, 255, 255, .025)"></path><path d="M0 560L707.35 560L0 308.26z" fill="rgba(0, 0, 0, .1)"></path><path d="M0 308.26L707.35 560L953.12 560L0 207.01999999999998z" fill="rgba(0, 0, 0, .075)"></path><path d="M0 207.01999999999998L953.12 560L1177.81 560L0 101.88999999999999z" fill="rgba(0, 0, 0, .05)"></path><path d="M0 101.88999999999999L1177.81 560L1350.77 560L0 81.76999999999998z" fill="rgba(0, 0, 0, .025)"></path></g><defs><mask id="SvgjsMask1028"><rect width="1440" height="560" fill="#ffffff"></rect></mask><linearGradient x1="15.28%" y1="-39.29%" x2="84.72%" y2="139.29%" gradientUnits="userSpaceOnUse" id="SvgjsLinearGradient1029"><stop stop-color="#0e2a47" offset="0"></stop><stop stop-color="rgba(218, 218, 218, 1)" offset="0"></stop></linearGradient></defs></svg>