<svg id="Layer_1" data-name="Layer 1" xmlns="http://www.w3.org/2000/svg" viewBox="0 0 45.54 51.49"><defs><style>.cls-1{fill:#333;}</style></defs><path class="cls-1" d="M3,0H48.53c-.09,1.28-.17,2.52-.26,3.76l-.63,9q-.45,6.23-.91,12.45L46,35.11c-.23,3.21-.45,6.43-.71,9.64a.77.77,0,0,1-.45.53l-11,3.64c-2.55.83-5.09,1.68-7.64,2.5a1.74,1.74,0,0,1-1,0q-9.36-3.06-18.71-6.16a.82.82,0,0,1-.44-.61c-.3-4.06-.57-8.13-.86-12.19-.33-4.62-.7-9.24-1-13.86-.21-3-.38-5.94-.59-8.91s-.44-6-.66-9C3,.46,3,.26,3,0ZM12.9,33.48c.15,2,.29,3.89.46,5.8,0,.15.24.35.41.41q5.81,2,11.63,3.88a1.19,1.19,0,0,0,.7,0c3.76-1.24,7.5-2.52,11.26-3.74a1.05,1.05,0,0,0,.86-1.11c.34-5,.7-10,1.05-14.94.06-.79.1-1.58.15-2.45H18.11l-.54-7.76H40l.44-6H11.06l1.4,19.84H32.92c-.17,2.5-.32,4.93-.52,7.36a.69.69,0,0,1-.43.47c-1.94.67-3.88,1.33-5.84,2a1.76,1.76,0,0,1-1-.06c-1.52-.48-3-1.06-4.53-1.47-1.1-.3-1.9-.69-1.66-2,0,0,0-.07-.07-.14Z" transform="translate(-2.98)"/></svg>