<svg id="Layer_1" data-name="Layer 1" xmlns="http://www.w3.org/2000/svg" viewBox="0 0 51.51 51.49"><path d="M51.51,0V51.49H0V0ZM3,3V48.45H48.46V3Z"/><path d="M14.81,35.41l2-5.27c1.43-3.75,2.88-7.5,4.29-11.27.18-.46.38-.69.9-.64a6.11,6.11,0,0,0,1.48,0c.66-.09.93.23,1.14.8,2,5.33,4.05,10.65,6.07,16a3.33,3.33,0,0,1,.11.42c-1.09,0-2.12,0-3.16,0-.15,0-.34-.29-.42-.49-.42-1.06-.85-2.12-1.19-3.2a.73.73,0,0,0-.87-.58c-1.57,0-3.14,0-4.71,0a.78.78,0,0,0-.89.66c-.37,1.07-.77,2.14-1.19,3.2-.07.17-.26.41-.41.41C16.94,35.43,15.92,35.41,14.81,35.41Zm8-13.37-2.44,6.7h4.79Z"/><path d="M32.45,35.37V22.81h3.16V35.37Z"/><path d="M35.66,17.84c0,.95,0,1.89,0,2.82a.5.5,0,0,1-.38.32c-.91,0-1.82,0-2.79,0V17.84Z"/></svg>