<svg id="Layer_1" data-name="Layer 1" xmlns="http://www.w3.org/2000/svg" viewBox="0 0 51.51 51.46"><path d="M0,0H51.51V51.49H0ZM49.37,49.3v-47H2.13v47Z" transform="translate(0 -0.03)"/><path d="M32.6,17.85c0-1.82,0-3.53,0-5.24,0-.64.16-.87.8-.84,1,.06,2,0,3.13,0v.9q0,10.1,0,20.18c0,.3,0,.59,0,.88.09,1.19.11,1.23-1,1.66A11.34,11.34,0,0,1,28.1,36,7.16,7.16,0,0,1,23,30.23a11.14,11.14,0,0,1,.82-7.9,8.11,8.11,0,0,1,7.16-4.48C31.46,17.82,32,17.85,32.6,17.85Zm0,9.15c0-1.66,0-3.33,0-5,0-.55-.23-.73-.69-.78a4.42,4.42,0,0,0-4.71,2.7,8.69,8.69,0,0,0-.32,5.45A4.23,4.23,0,0,0,32,32.73c.5-.11.67-.29.66-.81C32.58,30.28,32.6,28.64,32.6,27Z" transform="translate(0 -0.03)"/><path d="M15,11.81c1.21,0,2.3,0,3.4,0,.15,0,.35.24.43.42a1.35,1.35,0,0,1,0,.57V35c0,1,0,1-1,1-.71,0-1.43,0-2.15,0-.54,0-.68-.18-.68-.72,0-3.4,0-6.79,0-10.19V11.81Z" transform="translate(0 -0.03)"/></svg>