<svg id="Layer_1" data-name="Layer 1" xmlns="http://www.w3.org/2000/svg" viewBox="0 0 50.69 50.69"><defs><style>.cls-1{fill:#191919;}.cls-2{fill:none;stroke:#333;stroke-miterlimit:10;stroke-width:4px;}</style></defs><path class="cls-1" d="M41.82,25.41,39,27.26c-.17-.24-.31-.44-.46-.63a2.17,2.17,0,0,0-2.17-.87,1.4,1.4,0,0,0-1.26,1,1.41,1.41,0,0,0,.46,1.64,8.64,8.64,0,0,0,1.45.83c1,.48,2,.89,3,1.42a5,5,0,0,1,2.74,3.47,4.77,4.77,0,0,1-3.67,5.94,7.64,7.64,0,0,1-7.15-1.41A11,11,0,0,1,30.53,37c-.15-.19-.15-.34.09-.48.89-.5,1.77-1,2.68-1.55.19.25.36.49.54.72a3.7,3.7,0,0,0,4,1.32,1.7,1.7,0,0,0,1.41-1.4,1.6,1.6,0,0,0-.94-1.7c-.71-.38-1.46-.69-2.18-1a22.4,22.4,0,0,1-2.47-1.31,4.92,4.92,0,0,1-2-5.4,4.62,4.62,0,0,1,4.16-3.51c2.39-.32,4.45.25,5.85,2.38C41.66,25.11,41.71,25.23,41.82,25.41Z" transform="translate(-0.41 -0.41)"/><path class="cls-1" d="M24.87,22.75h3.62c0,.18,0,.34,0,.49,0,4,0,8,0,12.05a4.79,4.79,0,0,1-5.08,5.08,5.68,5.68,0,0,1-5.37-2.75c-.34-.55-.33-.56.21-.89l2.44-1.46c.23.34.42.66.64.95a2.1,2.1,0,0,0,2.37.8,1.47,1.47,0,0,0,1.08-1.38,10.2,10.2,0,0,0,.06-1.24q0-5.44,0-10.91Z" transform="translate(-0.41 -0.41)"/><rect class="cls-2" x="2" y="2" width="46.69" height="46.69"/></svg>