<svg id="Layer_1" data-name="Layer 1" xmlns="http://www.w3.org/2000/svg" viewBox="0 0 51.51 51.49"><path d="M51.51,0V51.49H0V0ZM49.34,49.31V2.2H2.14V49.31Z"/><path d="M17.79,32.37h9.09c-.19,1.12-.35,2.18-.59,3.21,0,.18-.46.36-.7.37-1.72,0-3.44,0-5.16,0-1.91,0-3.81,0-5.72,0-.59,0-.79-.2-.79-.81q0-11.39,0-22.78c0-.55.13-.81.73-.77a23.17,23.17,0,0,0,2.5,0c.52,0,.66.18.65.68,0,1.37,0,2.74,0,4.11v16Z"/><path d="M38.35,21.24c-1.3.14-2.48.27-3.67.37-.56,0-.68.32-.67.86,0,4.21,0,8.42,0,12.63,0,.63-.15.89-.8.84-.81,0-1.62,0-2.43,0-.5,0-.66-.16-.66-.67,0-2.15,0-4.31,0-6.46,0-3-.07-5.93-.12-8.89,0-.4,0-.65.49-.82a22.43,22.43,0,0,1,7.33-1.36c.16,0,.45.22.46.34C38.36,19.13,38.35,20.18,38.35,21.24Z"/></svg>