<svg id="Layer_1" data-name="Layer 1" xmlns="http://www.w3.org/2000/svg" viewBox="0 0 129.08 108.84"><defs><style>.cls-1{fill:#e25e14;}.cls-2{fill:#070707;}</style></defs><path class="cls-1" d="M6.3,7.2a3.14,3.14,0,0,1,4.8-2.7C19.7,9.9,27.9,15,36,20.3c.9.6,1.3,2.6,1.3,4q.15,33,0,66c0,1.5-.5,3.7-1.6,4.3C27.1,99.8,18.4,104.7,9.3,110a2,2,0,0,1-3-1.7Z" transform="translate(-6.3 -1.83)"/><path class="cls-1" d="M54.7,108.2V22.6a1.11,1.11,0,0,0-1.1-1.1H38.5a1.1,1.1,0,0,1-1-.6h0a1.09,1.09,0,0,1,.2-1.2C43,14,48.4,8.3,54.1,2.2a1.22,1.22,0,0,1,1.3,0c9.9,6.2,19.7,12.3,29.3,18.5,1,.7,1.5,2.8,1.5,4.3q.15,32.7,0,65.4c0,1.5-.4,3.8-1.5,4.4-8.5,5.2-17.1,10.1-26.5,15.5A2.31,2.31,0,0,1,54.7,108.2Z" transform="translate(-6.3 -1.83)"/><path class="cls-2" d="M54.7,22.7a1.11,1.11,0,0,0-1.1-1.1H38.4a1.1,1.1,0,0,1-1-.6h0a1.06,1.06,0,0,1,.2-1.2C42.8,14.3,48.7,8.1,54.2,2.2c.2-.2.9-.4.9-.1Z" transform="translate(-6.3 -1.83)"/><path class="cls-1" d="M103.7,108.2V22.6a1.11,1.11,0,0,0-1.1-1.1H87.5a1.1,1.1,0,0,1-1-.6h0a1.09,1.09,0,0,1,.2-1.2C92,14,97.4,8.3,103.1,2.2a1.06,1.06,0,0,1,1.4-.2c9.9,6.2,19.7,12.3,29.3,18.5,1,.7,1.5,2.8,1.5,4.3q.15,32.7,0,65.4c0,1.5-.4,3.8-1.5,4.4-8.5,5.2-17.1,10.1-26.5,15.5A2.25,2.25,0,0,1,103.7,108.2Z" transform="translate(-6.3 -1.83)"/><path class="cls-2" d="M103.7,22.7a1.11,1.11,0,0,0-1.1-1.1H87.4a1.1,1.1,0,0,1-1-.6h0a1.06,1.06,0,0,1,.2-1.2c5.2-5.5,11.1-11.7,16.6-17.6.2-.2.9-.4.9-.1Z" transform="translate(-6.3 -1.83)"/></svg>