<svg id="Layer_1" data-name="Layer 1" xmlns="http://www.w3.org/2000/svg" viewBox="0 0 51.51 51.49"><path d="M51.51,0V51.49H0V0ZM3,3V48.45H48.46V3Z"/><path d="M17.47,29.64v5.74H14.22V18.27l.55,0c2.17,0,4.34,0,6.51,0A5.62,5.62,0,0,1,26.79,23a5.69,5.69,0,0,1-3.69,6.4,5.15,5.15,0,0,1-1.57.24C20.21,29.66,18.89,29.64,17.47,29.64Zm0-8.46v5.5c1.44,0,2.85.08,4.24-.05a2.14,2.14,0,0,0,1.3-1,3.17,3.17,0,0,0,0-3.38,1.93,1.93,0,0,0-1.61-1C20.14,21.15,18.86,21.18,17.51,21.18Z"/><path d="M28,33.67l1.15-1.93a17.85,17.85,0,0,0,2.47,1.18,9.51,9.51,0,0,0,2.56.33,1.41,1.41,0,0,0,1.52-1.16c.06-.59-.32-1.09-1.16-1.36-1.21-.4-2.43-.74-3.65-1.11a4.19,4.19,0,0,1-.49-.2c-2.93-1.35-2.21-4.49-.51-5.81,2.19-1.7,6.42-1.38,8.42.68l-1.17,1.76a25.12,25.12,0,0,0-3-1.14,3.49,3.49,0,0,0-1.94.18,1.45,1.45,0,0,0-.73,1.06,1.31,1.31,0,0,0,.6,1,19.82,19.82,0,0,0,2.21.76A23.37,23.37,0,0,1,37.13,29c2.59,1.34,1.92,4.86-.17,5.9a7.87,7.87,0,0,1-5.5.49A7.77,7.77,0,0,1,28,33.67Z"/></svg>